<?xml version="1.0" standalone="no"?>
<!DOCTYPE svg PUBLIC "-//W3C//DTD SVG 20010904//EN"
 "http://www.w3.org/TR/2001/REC-SVG-20010904/DTD/svg10.dtd">
<svg version="1.0" xmlns="http://www.w3.org/2000/svg"
 width="300.000000pt" height="300.000000pt" viewBox="0 0 300.000000 300.000000"
 preserveAspectRatio="xMidYMid meet">
<metadata>
Created by potrace 1.14, written by Peter Selinger 2001-2017
</metadata>
<g transform="translate(0.000000,300.000000) scale(0.100000,-0.100000)"
fill="#000000" stroke="none">
<path d="M2858 2915 c-10 -10 -80 -15 -298 -20 -518 -13 -569 -15 -665 -29
-22 -3 -62 -8 -90 -11 -27 -3 -66 -7 -85 -10 -19 -2 -59 -7 -88 -10 -46 -5
-73 -10 -181 -31 -51 -10 -174 -64 -239 -104 -37 -22 -76 -46 -87 -53 -11 -7
-22 -14 -25 -17 -3 -3 -72 -50 -154 -104 -82 -54 -156 -105 -165 -112 -154
-124 -203 -166 -268 -232 -43 -43 -89 -92 -103 -110 -14 -18 -37 -47 -52 -65
-31 -35 -138 -240 -138 -262 0 -7 -3 -15 -7 -17 -24 -10 -166 -409 -164 -463
0 -2 -4 -19 -10 -37 -9 -33 -21 -221 -21 -338 -1 -114 11 -245 27 -295 8 -27
12 -51 10 -53 -2 -3 0 -12 5 -22 9 -16 12 -30 25 -97 6 -29 22 -87 32 -113 3
-8 7 -21 9 -28 8 -39 59 -124 86 -143 45 -32 134 -32 298 1 92 19 199 19 255
0 28 -10 52 -17 55 -18 18 -1 109 -15 125 -19 35 -9 301 -11 351 -3 27 4 69
11 94 14 59 8 76 11 130 27 25 6 52 13 60 14 32 3 266 89 283 103 9 8 17 12
17 8 0 -12 212 105 314 173 112 74 202 157 300 276 37 44 75 90 85 102 32 39
118 176 156 252 40 81 55 123 120 346 44 151 47 168 64 285 14 95 30 241 36
325 2 28 5 50 5 50 1 0 4 52 7 115 13 261 2 442 -32 542 -8 24 -13 66 -13 93
2 57 -14 95 -41 95 -10 0 -20 -2 -23 -5z m-401 -148 c12 -13 -11 -25 -67 -36
-30 -6 -66 -13 -80 -16 -14 -3 -38 -8 -55 -11 -36 -6 -131 -28 -240 -56 -44
-11 -91 -22 -105 -25 -14 -2 -32 -7 -40 -10 -8 -3 -24 -8 -34 -10 -54 -10
-144 -35 -164 -45 -18 -9 -22 -19 -20 -42 3 -29 6 -31 39 -28 43 3 208 43 314
76 66 21 92 20 105 -3 15 -29 4 -47 -53 -84 -78 -52 -165 -88 -272 -112 -16
-4 -37 -9 -45 -11 -110 -27 -144 -34 -171 -39 -18 -3 -35 -8 -39 -10 -3 -2
-17 -6 -31 -9 -13 -3 -34 -7 -46 -10 -42 -11 -60 -14 -99 -20 -22 -4 -57 -11
-79 -17 -22 -6 -51 -13 -64 -16 -89 -16 -218 -93 -315 -188 -37 -37 -70 -64
-73 -62 -13 14 15 51 90 118 45 41 87 78 93 84 6 5 44 39 84 75 107 93 231
222 227 234 -2 6 -19 12 -38 14 -27 2 -49 -6 -95 -36 -32 -21 -86 -55 -118
-76 -89 -58 -231 -192 -283 -268 -14 -21 -30 -38 -34 -38 -5 0 -9 -6 -9 -14 0
-8 -3 -16 -8 -18 -24 -10 -220 -326 -284 -458 -40 -84 -94 -225 -103 -269 -2
-9 -10 -43 -18 -76 -9 -33 -18 -80 -22 -105 -8 -56 -13 -85 -15 -85 -5 0 -13
-135 -16 -300 -2 -104 -6 -201 -8 -215 -2 -14 -4 -34 -5 -45 -1 -16 -3 -17
-10 -5 -13 22 -40 138 -45 193 -3 26 -8 63 -12 82 -8 43 -8 312 0 375 3 25 8
59 10 75 2 17 7 46 11 65 5 19 9 42 10 50 1 8 5 22 7 30 3 8 13 44 23 80 17
68 48 150 97 260 16 36 29 67 28 69 -1 2 2 7 7 10 4 3 16 22 27 41 66 123 148
250 191 294 57 58 76 74 280 244 151 125 384 261 543 317 137 47 275 69 517
80 77 4 141 8 142 9 7 6 364 -1 370 -7z m205 -219 c17 -32 19 -63 18 -228 -1
-182 -3 -210 -11 -210 -4 0 -7 -12 -6 -27 0 -16 -5 -55 -13 -88 -7 -33 -14
-64 -16 -70 -3 -19 -36 -140 -41 -155 -42 -118 -90 -247 -126 -342 -25 -65
-43 -118 -42 -118 2 0 -2 -11 -9 -25 -7 -14 -12 -35 -11 -48 1 -12 3 -28 4
-34 1 -10 7 -10 25 -2 16 8 38 42 69 108 46 98 77 168 83 186 2 6 17 48 35 95
35 95 94 298 104 357 26 163 36 241 41 322 2 52 7 98 10 103 3 4 0 8 -6 8 -7
0 -8 6 -2 16 5 9 6 35 1 58 -9 51 3 80 20 47 40 -74 33 -600 -9 -787 -7 -27
-13 -58 -16 -69 -8 -41 -57 -192 -76 -235 -37 -84 -91 -195 -97 -200 -6 -5
-28 -43 -54 -93 -7 -12 -70 -115 -142 -227 -100 -158 -148 -224 -210 -286 -73
-75 -190 -164 -214 -164 -5 0 -11 -4 -13 -8 -3 -9 -113 -62 -128 -62 -6 0 -10
-4 -10 -8 0 -5 -6 -9 -14 -9 -8 0 -37 -10 -66 -22 -29 -13 -60 -24 -69 -26 -9
-2 -41 -10 -71 -19 -30 -8 -66 -17 -80 -20 -14 -2 -36 -7 -50 -10 -145 -34
-377 -38 -565 -10 -27 4 -58 8 -67 8 -9 0 -14 4 -12 8 3 5 26 6 52 4 75 -7
252 -9 259 -3 3 4 14 2 24 -4 11 -5 19 -6 19 -2 0 9 92 8 115 -1 8 -3 17 -1
19 3 3 5 16 8 30 8 71 0 198 48 210 79 12 30 -3 32 -122 15 -45 -7 -86 -9 -91
-6 -5 3 -12 2 -14 -2 -5 -8 -336 -8 -492 0 -71 4 -85 1 -124 -21 l-45 -25 -88
18 c-49 10 -99 19 -112 20 -13 2 -33 6 -45 10 -20 6 -20 6 4 45 14 22 25 42
25 44 0 3 13 27 29 55 16 27 43 80 59 118 16 37 51 118 77 178 26 61 48 116
48 123 0 6 3 12 7 12 4 0 13 20 20 45 7 25 17 48 21 51 5 3 9 13 9 24 0 10 9
35 19 57 11 21 40 80 66 132 58 115 99 181 183 291 63 83 227 252 307 318 54
44 249 177 254 173 2 -1 7 2 10 7 6 10 301 163 301 156 0 -8 668 333 695 356
8 7 15 9 15 6 0 -4 10 0 22 8 31 22 55 20 70 -6z m-1025 -359 c-56 -38 -109
-73 -117 -79 -57 -38 -195 -134 -204 -141 -6 -5 -41 -31 -77 -58 -61 -46 -239
-215 -284 -271 -148 -182 -251 -351 -330 -540 -15 -36 -35 -83 -45 -105 -10
-22 -46 -110 -81 -195 -60 -149 -94 -205 -109 -179 -8 11 -5 158 5 242 3 26 7
68 10 94 2 25 7 53 10 62 2 9 7 33 10 54 4 21 15 64 26 95 11 31 21 62 23 67
16 53 100 197 137 235 24 25 70 88 181 250 129 187 140 201 201 262 38 39 158
128 171 128 2 0 21 7 42 16 22 9 41 16 44 16 3 0 15 4 28 9 13 5 37 11 55 14
65 12 119 26 210 54 50 16 107 32 125 35 19 2 36 7 39 10 3 2 11 2 18 0 8 -3
-29 -35 -88 -75z"/>
<path d="M2556 2394 c-9 -8 -16 -17 -16 -18 0 -2 -5 -28 -11 -57 -6 -30 -12
-63 -14 -74 -5 -28 -10 -51 -29 -120 -9 -33 -19 -71 -22 -84 -3 -14 -7 -28
-10 -33 -3 -4 -7 -16 -9 -25 -2 -10 -16 -49 -30 -88 -15 -38 -28 -74 -29 -80
-2 -5 -8 -23 -14 -38 -7 -16 -12 -31 -12 -35 0 -4 -16 -45 -35 -92 -35 -85
-43 -130 -25 -130 40 0 60 27 118 159 80 182 105 248 137 361 15 52 30 102 33
110 3 8 6 22 7 30 0 8 4 29 8 45 21 90 23 151 6 171 -15 18 -34 18 -53 -2z"/>
<path d="M2368 2273 c-23 -25 -61 -89 -57 -95 6 -9 -16 -88 -37 -135 -14 -30
-28 -74 -31 -99 -5 -39 -3 -44 15 -44 11 0 28 7 37 17 17 17 39 63 37 76 -1 4
3 7 9 7 5 0 8 4 5 8 -3 5 3 35 13 68 10 32 19 64 20 69 1 6 7 28 13 50 6 22
12 47 13 55 1 8 4 21 6 29 7 25 -17 22 -43 -6z"/>
<path d="M2166 2125 c-9 -14 -14 -25 -10 -25 4 0 2 -6 -3 -12 -9 -12 -30 -67
-35 -93 -1 -5 -8 -21 -15 -35 -9 -18 -9 -26 -1 -31 12 -8 35 22 82 106 37 66
41 92 17 104 -15 9 -22 6 -35 -14z"/>
<path d="M2024 1365 c-17 -7 -57 -43 -90 -80 -144 -165 -219 -236 -342 -319
-49 -34 -82 -75 -82 -104 0 -20 17 -39 35 -38 11 1 105 59 139 86 110 87 198
170 246 231 14 17 35 42 48 55 12 13 22 25 22 28 0 3 14 25 31 50 20 31 29 55
27 75 -3 29 -4 29 -34 16z"/>
<path d="M2199 1217 c-10 -30 -7 -47 10 -47 20 0 47 26 34 33 -13 6 -43 17
-44 14z"/>
<path d="M2064 992 c-6 -4 -16 -17 -23 -29 -10 -19 -8 -24 14 -39 14 -9 32
-14 40 -10 18 7 39 56 28 67 -14 12 -48 19 -59 11z"/>
<path d="M1781 769 c-26 -35 -23 -51 15 -75 26 -18 27 -17 45 5 24 29 24 50 0
79 -25 29 -33 28 -60 -9z"/>
<path d="M1954 773 c-23 -25 -23 -27 -8 -45 22 -23 46 -23 67 0 21 23 21 36 1
56 -21 22 -31 20 -60 -11z"/>
<path d="M1767 641 c-10 -10 -20 -34 -24 -54 -4 -29 -2 -37 15 -46 26 -14 46
-6 62 25 12 21 11 30 -3 59 -19 40 -25 41 -50 16z"/>
<path d="M1520 550 c-12 -22 0 -49 30 -68 15 -9 19 -5 29 30 10 33 10 42 -1
49 -22 15 -47 10 -58 -11z"/>
</g>
</svg>
